{"title":"Red.Dog.2011.1080p.BRRip.x264.aac.mp4.anoXmous","uid":6898805,"size":938571425,"categoryP":"video","categoryS":"hd___movies","magnet":"?xt=urn:btih:d010f760e1a9d06905484f72d2c450225623942c&amp;dn=Red.Dog.2011.1080p.BRRip.x264.aac.mp4.anoXmous&amp;tr=udp%3A%2F%2Ftracker.openbittorrent.com%3A80&amp;tr=udp%3A%2F%2Fopen.demonii.com%3A1337&amp;tr=udp%3A%2F%2Ftracker.coppersurfer.tk%3A6969&amp;tr=udp%3A%2F%2Fexodus.desync.com%3A6969","seeders":0,"leechers":2,"uploader":"anoXmous","files":-1,"time":1324311321,"description":"Red.Dog.2011.1080p.BRRip.x264.aac.mp4.anoXmous\n\nFormat                           : MPEG-4\nFormat profile                   : Base Media\nCodec ID                         : isom\nFile size                        : 895 MiB\nDuration                         : 1h 32mn\nOverall bit rate mode            : Variable\nOverall bit rate                 : 1 355 Kbps\n\n\nVideo\nID                               : 1\nFormat                           : AVC\nFormat/Info                      : Advanced Video Codec\nFormat profile                   : &lt;a class=&quot;__cf_email__&quot; href=&quot;/cdn-cgi/l/email-protection&quot; data-cfemail=&quot;d59dbcb2bd9599e1fbe4&quot;&gt;[email&amp;#160;protected]&lt;/a&gt;&lt;script cf-hash='f9e31' type=&quot;text/javascript&quot;&gt;\n/* &lt;![CDATA[ */!function(){try{var t=&quot;currentScript&quot;in document?document.currentScript:function(){for(var t=document.getElementsByTagName(&quot;script&quot;),e=t.length;e--;)if(t[e].getAttribute(&quot;cf-hash&quot;))return t[e]}();if(t&amp;&amp;t.previousSibling){var e,r,n,i,c=t.previousSibling,a=c.getAttribute(&quot;data-cfemail&quot;);if(a){for(e=&quot;&quot;,r=parseInt(a.substr(0,2),16),n=2;a.length-n;n+=2)i=parseInt(a.substr(n,2),16)^r,e+=String.fromCharCode(i);e=document.createTextNode(e),c.parentNode.replaceChild(e,c)}}}catch(u){}}();/* ]]&gt; */&lt;/script&gt;\nFormat settings, CABAC           : Yes\nFormat settings, ReFrames        : 4 frames\nCodec ID                         : avc1\nCodec ID/Info                    : Advanced Video Coding\nDuration                         : 1h 32mn\nBit rate                         : 1 284 Kbps\nMaximum bit rate                 : 10.8 Mbps\nWidth                            : 1 904 pixels\nHeight                           : 816 pixels\nDisplay aspect ratio             : 2.35:1\nFrame rate mode                  : Constant\nFrame rate                       : 23.976 fps\nColor space                      : YUV\nChroma subsampling               : 4:2:0\nBit depth                        : 8 bits\nScan type                        : Progressive\nBits/(Pixel*Frame)               : 0.034\nStream size                      : 847 MiB (95%)\nWriting library                  : x264 core 120 r2120 0c7dab9\n\n\nAudio\nID                               : 2\nFormat                           : AAC\nFormat/Info                      : Advanced Audio Codec\nFormat profile                   : LC\nCodec ID                         : 40\nDuration                         : 1h 32mn\nBit rate mode                    : Variable\nBit rate                         : 69.4 Kbps\nMaximum bit rate                 : 91.0 Kbps\nChannel(s)                       : 2 channels\nChannel positions                : Front: L R\nSampling rate                    : 48.0 KHz / 24.0 KHz\nCompression mode                 : Lossy\nStream size                      : 45.8 MiB (5%)\nLanguage                         : English\n\n                              SUB:\nRed.Dog.2011.1080p.BRRip.x264.aac.mp4.anoXmous_swe.srt\n\n      &lt;a href=&quot; http://www.imdb.com/title/tt0803061/&quot; rel=&quot;nofollow&quot; target=&quot;_NEW&quot;&gt; http://www.imdb.com/title/tt0803061/&lt;/a&gt;\n\n+++++++++ This work very fine with PSP and XBOX :) ++++++++++\n","torrent":{"xt":"urn:btih:d010f760e1a9d06905484f72d2c450225623942c","amp;dn":"Red.Dog.2011.1080p.BRRip.x264.aac.mp4.anoXmous","amp;tr":["udp%3A%2F%2Ftracker.openbittorrent.com%3A80","udp%3A%2F%2Fopen.demonii.com%3A1337","udp%3A%2F%2Ftracker.coppersurfer.tk%3A6969","udp%3A%2F%2Fexodus.desync.com%3A6969"],"infoHash":"d010f760e1a9d06905484f72d2c450225623942c","infoHashBuffer":{"type":"Buffer","data":[208,16,247,96,225,169,208,105,5,72,79,114,210,196,80,34,86,35,148,44]},"announce":[],"urlList":[]}}